<svg width="186" height="175" viewBox="0 0 186 175" fill="none" xmlns="http://www.w3.org/2000/svg">
<path d="M142.221 161.185C141.59 161.559 141.392 161.814 141.951 161.525C142.347 161.304 142.996 160.845 142.888 160.828C142.834 160.828 142.528 160.998 142.221 161.185ZM140.978 161.949C140.653 162.187 140.653 162.204 141.05 162.017C141.266 161.916 141.446 161.797 141.446 161.763C141.446 161.627 141.356 161.661 140.978 161.949ZM140.076 162.459C139.752 162.697 139.752 162.714 140.148 162.527C140.365 162.425 140.545 162.306 140.545 162.272C140.545 162.136 140.455 162.17 140.076 162.459ZM139.175 162.969C138.851 163.207 138.851 163.224 139.247 163.037C139.463 162.935 139.644 162.816 139.644 162.782C139.644 162.646 139.554 162.68 139.175 162.969ZM137.805 163.649C137.12 163.988 137.156 164.124 137.841 163.801C138.148 163.649 138.382 163.496 138.382 163.462C138.382 163.343 138.364 163.36 137.805 163.649Z" fill="white" fill-opacity="0.85"/>
<g clip-path="url(#clip0_55_196)">
<path d="M39.3494 128.975L38.9207 24.8665L156.729 35.43L136.878 137.547L87.7528 145.234L39.3494 128.975Z" fill="#303030"/>
<path d="M88.6642 135.263L97.3801 39.9158L145.889 44.3188L129.439 128.865L88.6642 135.263Z" fill="#232323"/>
<path d="M130.382 66.8276L132.908 54.3456L58.2653 47.7852L58.8573 86.7856L110.371 91.3133L106.845 107.615L89.9991 109.973L73.6388 104.347L73.6482 94.4368L58.8476 93.1359L59.0341 113.394L88.7765 123.337L120.09 118.761L127.797 79.9318L73.6962 75.1767L73.3686 61.8166L130.382 66.8276Z" fill="#717171"/>
</g>
<defs>
<clipPath id="clip0_55_196">
<rect width="118.281" height="116.019" fill="white" transform="matrix(0.99616 0.0875548 -0.0910316 0.995848 38.9384 24.6733)"/>
</clipPath>
</defs>
</svg>
