<svg width="200" height="200" viewBox="0 0 200 200" fill="none" xmlns="http://www.w3.org/2000/svg">
<g clip-path="url(#clip0_57_253)">
<path d="M199.621 144.542C199.711 143.625 199.775 142.699 199.825 141.768C199.886 140.666 136.887 77.6938 136.887 77.6938H135.381C135.381 77.6938 199.236 148.653 199.621 144.542V144.542Z" fill="url(#paint0_linear_57_253)"/>
<path d="M65.2112 122.697C65.1276 122.89 65.0448 123.084 64.9588 123.276C64.8698 123.479 64.7776 123.681 64.6862 123.881C62.6784 128.292 92.8005 159.315 95.2231 155.546C95.3332 155.38 95.4442 155.204 95.5543 155.038C95.677 154.84 95.7981 154.651 95.9192 154.453C97.8566 151.355 66.0713 120.682 65.2112 122.697Z" fill="url(#paint1_linear_57_253)"/>
<path d="M107.777 166.323C107.692 166.521 107.085 167.601 106.531 168.171C106.438 168.369 135.937 199.19 135.937 199.19H138.593C138.595 199.19 110.902 167.626 107.777 166.323Z" fill="url(#paint2_linear_57_253)"/>
<path d="M199.867 141.208C198.487 173.428 173.186 199.19 142.274 199.19H138.095L107.225 167.151C109.764 163.378 112.125 159.469 114.227 155.393H142.274C151.145 155.393 158.363 147.793 158.363 138.443C158.363 129.097 151.145 121.492 142.274 121.492H125.676C126.941 114.449 127.633 107.187 127.633 99.7572C127.633 92.214 126.929 84.8486 125.619 77.693H135.929L199.685 143.877C199.761 142.99 199.821 142.104 199.867 141.208ZM16.7707 0H-3.05176e-05V43.7967H16.7707C46.0616 43.7967 69.8947 68.8988 69.8947 99.7572C69.8947 108.152 68.1174 116.122 64.9588 123.277L95.5543 155.038C105.6 139.202 111.473 120.191 111.473 99.7572C111.473 44.7514 68.9884 0 16.7707 0Z" fill="url(#paint3_linear_57_253)"/>
<path d="M142.275 0H74.3633C90.9505 10.6691 104.685 25.7975 114.044 43.7967H142.275C151.145 43.7967 158.363 51.3975 158.363 60.7473C158.363 70.0946 151.145 77.6955 142.275 77.6955H135.931L199.687 143.879C199.837 142.084 199.931 140.277 199.931 138.443C199.931 123.678 194.902 110.134 186.553 99.5926C194.902 89.056 199.931 75.5095 199.931 60.7473C199.931 27.2527 174.069 0 142.275 0Z" fill="url(#paint4_linear_57_253)"/>
<path d="M138.095 199.19H74.8485C87.5795 190.907 98.5855 179.972 107.225 167.15L138.095 199.19ZM95.5543 155.038L64.9612 123.276C56.509 142.413 38.0906 155.722 16.7707 155.722H-3.05176e-05V199.515H16.7707C49.5904 199.515 78.5586 181.829 95.5543 155.038Z" fill="url(#paint5_linear_57_253)"/>
</g>
<defs>
<linearGradient id="paint0_linear_57_253" x1="-5190.09" y1="-6143.08" x2="7324.74" y2="6695.06" gradientUnits="userSpaceOnUse">
<stop stop-color="#F9A03C"/>
<stop offset="1" stop-color="#F7974E"/>
</linearGradient>
<linearGradient id="paint1_linear_57_253" x1="-8069.27" y1="-8158.41" x2="3753.58" y2="2732.11" gradientUnits="userSpaceOnUse">
<stop stop-color="#F9A03C"/>
<stop offset="1" stop-color="#F7974E"/>
</linearGradient>
<linearGradient id="paint2_linear_57_253" x1="-7048.54" y1="-8443.69" x2="3408.48" y2="3251.77" gradientUnits="userSpaceOnUse">
<stop stop-color="#F9A03C"/>
<stop offset="1" stop-color="#F7974E"/>
</linearGradient>
<linearGradient id="paint3_linear_57_253" x1="2266.29" y1="-362.925" x2="16427" y2="18393.1" gradientUnits="userSpaceOnUse">
<stop stop-color="#232323"/>
<stop offset="1" stop-color="#121212"/>
</linearGradient>
<linearGradient id="paint4_linear_57_253" x1="2063.86" y1="555.086" x2="16172.3" y2="8645.71" gradientUnits="userSpaceOnUse">
<stop stop-color="#1F1F1F"/>
<stop offset="1" stop-color="#F68E48"/>
</linearGradient>
<linearGradient id="paint5_linear_57_253" x1="6488.25" y1="1912.29" x2="6694.59" y2="11370.4" gradientUnits="userSpaceOnUse">
<stop stop-color="#272727"/>
<stop offset="1" stop-color="#111111"/>
</linearGradient>
<clipPath id="clip0_57_253">
<rect width="200" height="200" fill="white"/>
</clipPath>
</defs>
</svg>
