<svg width="117" height="117" viewBox="0 0 117 117" fill="none" xmlns="http://www.w3.org/2000/svg">
<path d="M19.0784 51.6183C15.2514 53.1715 5.12232 60.1635 3.17142 62.2351C1.14538 64.3067 0.545308 61.0699 2.64613 55.6967C4.29643 51.3593 8.4988 45.4679 15.5516 40.4186C19.6781 37.5053 28.7574 33.2976 34.3094 30.8373C35.4352 30.3192 49.9914 25.0108 62.972 22.3566C64.0978 22.0976 61.6216 23.975 61.2462 25.0108C59.2953 29.9308 20.3533 51.0354 20.3533 51.0354L19.0784 51.6183ZM73.9266 110.983C74.6019 114.478 74.0018 114.738 69.8001 115.191C65.5981 115.644 62.5219 114.284 61.3965 113.378C60.2708 112.471 60.046 110.465 61.1714 108.652C61.847 107.487 62.5222 107.098 62.8976 105.674C63.2726 104.315 63.5728 103.991 63.8727 103.473C64.1725 103.02 64.2481 102.567 64.3228 99.3946C64.398 96.2226 64.3228 90.2665 64.6982 87.7419C65.0736 85.1526 78.0542 88.9071 78.0542 88.9071C78.0542 88.9071 74.9776 95.5103 74.1524 97.1287C73.3269 98.7475 73.4021 101.855 73.4021 102.502C73.4021 103.149 73.1022 104.444 72.8768 104.509C72.6517 104.573 73.6271 106.257 73.1766 107.228C72.8764 108.134 73.8519 110.465 73.9266 110.983ZM78.879 11.9985C78.4285 9.53849 78.879 4.68268 79.4791 3.90622C81.3552 1.70492 91.2592 1.44621 93.3604 4.03557C94.2607 5.20074 94.1856 7.91978 94.0356 9.66785C93.8857 11.4156 93.3604 15.1704 93.2853 16.4008C93.2105 17.3072 82.3306 18.7311 79.9296 16.2711C79.254 15.624 78.879 11.9985 78.879 11.9985ZM100.939 104.703C105.516 107.552 109.042 108.069 111.368 109.105C113.694 110.141 113.094 112.148 109.192 112.731C106.04 113.248 101.088 112.213 97.7871 112.213C94.4858 112.213 87.1324 112.537 85.1815 111.371C82.9307 110.012 83.9058 107.487 83.9058 107.487C84.5062 106.063 86.0066 102.89 85.5565 100.301C85.1063 97.7116 84.5059 96.2874 83.3805 93.892C82.2551 91.4968 81.43 85.6058 82.4806 85.2819C83.5312 84.9581 83.2306 85.2819 84.5814 85.5406C85.9318 85.7994 87.4326 86.1881 90.3589 86.1881C93.2853 86.1881 96.5115 85.7994 97.6372 85.6055C98.7626 85.4113 99.6629 85.2168 99.2875 87.2239C98.9125 89.2307 97.7871 92.9855 97.712 95.8987C97.6372 98.812 97.6372 102.178 97.8623 102.761C98.087 103.344 99.738 103.991 100.939 104.703Z" fill="#0B0B0B"/>
<path d="M84.8815 18.4724C76.6282 24.6227 60.646 26.3056 36.9362 34.2037C30.8584 36.2105 14.6516 42.2312 10.7498 48.5109C23.8804 41.9725 28.7576 50.9709 29.8079 60.2283C30.7829 68.9032 35.8105 73.4351 48.716 73.1758C61.9968 72.9171 66.0486 79.5848 69.7249 87.4184C76.8529 57.4444 88.258 51.6183 95.6107 46.5041C111.218 35.5631 92.0095 16.2711 84.8815 18.4724Z" fill="#3B3B3B"/>
<path d="M84.8815 18.4724C65.0731 24.4282 45.4894 25.9173 22.4548 38.1528C16.9775 41.066 5.42244 47.6689 3.17133 60.2932C11.5746 52.2654 31.008 42.1667 54.7933 35.7576C66.7986 32.5205 75.5776 30.3844 86.232 26.8237C85.482 22.6802 85.482 21.0618 84.8815 18.4724Z" fill="#3B3B3B"/>
<path d="M110.167 53.9488C110.167 53.9488 108.742 58.1569 105.89 59.5165C105.89 59.5165 103.79 60.164 99.588 58.1572C98.3875 57.5746 97.4872 55.5678 97.562 54.9201C97.6371 53.3662 98.7625 52.6543 98.7625 52.6543C98.7625 52.6543 99.9634 50.9062 101.389 50.971C102.815 51.0355 105.216 51.2297 105.966 50.6472C106.641 49.9997 110.318 51.8123 110.167 53.9488ZM79.5542 13.2287C79.5542 13.2287 79.2543 16.5306 78.729 18.6019C78.6539 18.9906 76.4031 19.1845 74.7521 19.7674C77.9035 27.5358 96.8868 27.471 99.3629 23.6516C98.1624 22.9397 95.7614 21.839 94.636 21.4506C93.5103 21.0619 93.5854 21.1268 93.5103 19.3142C93.4355 17.5013 93.2852 14.1351 93.1349 13.2287C92.985 12.3222 81.3548 12.3222 79.5542 13.2287Z" fill="#0B0B0B"/>
<path d="M80.3045 13.2287C80.3045 13.2287 80.3045 15.1061 80.0795 16.9187C80.0047 17.7603 79.9295 18.2781 79.7796 18.9255C79.7044 19.3142 82.3306 20.8674 83.0809 24.2987C86.6825 31.2255 95.0114 27.7945 98.4626 24.4929C97.2621 23.7806 95.3112 22.8097 93.0605 22.0329C91.9347 21.6442 92.46 20.8029 92.3852 18.9903C92.3101 17.1777 92.0099 14.5232 91.86 13.5522C91.7093 12.5813 82.1055 12.3222 80.3045 13.2287Z" fill="#383838"/>
<path d="M79.5541 13.2287C79.5541 13.2287 79.479 14.3942 79.2543 15.7535C80.2294 16.5948 81.505 17.7603 82.4808 18.4726C83.1561 18.9906 84.8064 18.9258 86.3075 18.9258C87.6579 18.9258 88.8584 19.0551 89.3837 18.7964C90.5846 18.2784 92.3101 16.9838 93.2855 16.0125C93.2107 14.8474 93.1356 13.7467 93.0608 13.2287C92.9849 12.3222 81.3547 12.3222 79.5541 13.2287Z" fill="#0B0B0B"/>
<path d="M86.3823 18.1488C85.4816 18.1488 84.431 18.0843 83.6059 17.9546C83.2305 17.8901 82.8555 17.6959 82.5553 17.5663C82.03 17.2424 81.5047 16.8543 80.905 16.4656C79.7041 15.6888 79.6293 15.2356 79.6293 15.0417C80.1546 10.963 79.479 7.53203 79.479 7.53203C79.479 7.53203 78.9537 5.78396 81.8049 5.33073C84.6561 4.87751 86.3819 4.81299 86.3819 4.81299C86.3819 4.81299 88.1829 4.81299 90.9589 5.33073C93.8101 5.78396 93.2848 7.53203 93.2848 7.53203C93.2848 7.53203 92.6096 10.963 93.1349 15.0417C93.1349 15.2356 93.0601 15.6888 91.8592 16.4656C90.8086 17.113 89.9835 17.825 89.1583 17.9546C88.3328 18.0843 87.2822 18.1488 86.3823 18.1488Z" fill="#0B0B0B"/>
<path d="M86.3823 3.12964C81.4303 3.12964 80.4544 4.2948 79.0289 5.58965C78.729 5.9132 78.9537 7.85546 79.4794 11.9987H80.1546C80.1546 11.9987 79.7041 10.8332 79.7792 9.47385C79.8544 8.11449 80.1546 8.17933 79.9291 7.85546C79.6293 7.46675 79.0289 6.81933 80.3797 6.17223C81.7301 5.52481 83.8309 6.68997 86.3823 6.75481C88.9332 6.68997 91.1092 5.52481 92.4597 6.17223C93.8101 6.81933 93.21 7.46675 92.9102 7.85546C92.6099 8.24385 92.985 8.11417 93.0601 9.47385C93.1349 10.8332 92.6847 11.9987 92.6847 11.9987H93.36C93.8101 7.85546 94.1103 6.04287 93.8853 5.719C92.6096 4.2948 91.3343 3.19416 86.3823 3.12964ZM110.167 54.143C110.167 54.143 108.742 58.092 105.966 59.4514C105.365 59.1927 105.44 58.8043 104.915 58.2214C104.765 58.0275 104.239 57.8975 104.015 57.7037C103.79 57.5095 103.865 57.1856 103.489 56.9269C103.189 56.6679 102.964 56.862 102.664 56.6679C102.364 56.4091 102.289 56.0853 102.064 55.8914C101.914 55.7617 101.313 55.6972 101.164 55.5675C100.788 55.2437 97.4872 54.6611 97.6371 54.0136C97.937 53.0424 98.5374 52.3304 98.5374 52.3304C98.5374 52.3304 99.963 50.5178 101.388 50.5824C102.814 50.6472 104.165 50.9062 104.915 50.3236C105.741 49.6759 110.393 52.0714 110.167 54.143Z" fill="#0B0B0B"/>
<path d="M100.413 25.5291C100.413 25.5291 105.14 24.5579 108.367 27.2124C111.593 29.9314 111.368 33.2976 110.393 35.3692C111.218 36.2108 112.719 38.5411 111.593 41.325C116.545 44.9502 114.369 50.5179 109.943 54.2079C109.943 54.2079 108.892 50.8415 104.69 50.6473C104.84 49.3528 100.788 48.3166 102.664 44.9502C99.813 44.3676 99.8882 42.6844 99.438 40.6131C99.0627 38.5411 100.413 25.5291 100.413 25.5291Z" fill="#0B0B0B"/>
<path d="M98.6874 27.3416C98.6874 27.3416 104.165 24.9465 107.391 27.6655C110.617 30.3845 109.717 33.3623 108.742 35.4339C109.567 36.2752 111.518 38.671 110.317 41.5191C110.092 42.1665 108.441 42.1665 107.241 43.8497C110.242 42.3604 112.118 42.7491 112.793 44.6262C113.844 47.5394 111.517 51.0352 109.492 52.9775C109.492 52.9127 109.417 52.8478 109.417 52.7833C109.117 53.7546 108.741 55.6317 106.491 57.7033C105.365 58.7391 104.465 58.6098 103.189 58.3507C101.688 58.0269 101.163 57.444 99.0624 56.4733C97.8618 55.8907 98.5371 55.1785 98.5371 54.5959C98.5371 54.4665 98.687 54.272 98.9124 54.0133C99.0624 53.6894 99.5125 53.172 100.188 52.5891C100.188 52.5891 101.163 51.4239 102.589 51.4885C104.015 51.5533 105.515 51.2946 105.89 50.9707C105.89 48.7049 102.889 48.6401 103.94 44.7559C104.015 44.5617 104.39 44.2378 105.59 44.1084C103.789 43.7846 102.964 43.7197 101.688 42.6842C100.788 41.9723 100.113 41.0659 99.8875 39.9007C99.4377 37.8939 98.6874 27.3416 98.6874 27.3416Z" fill="#383838"/>
<path d="M82.8555 23.2631C82.4053 22.745 80.0794 20.1556 75.6524 19.1198C74.3767 18.796 73.5515 19.7024 72.2762 20.3498C71.9009 20.1556 70.2502 19.5082 69.3499 19.9611C68.4496 20.414 67.8495 20.8676 66.9489 21.1911C66.4983 20.9969 65.2982 20.9969 64.3228 21.3205C63.3473 21.5795 61.8466 22.1621 60.421 23.8453C59.5207 26.6292 76.3276 24.5573 76.3276 24.5573L82.8555 23.2631Z" fill="#0B0B0B"/>
<path d="M83.0058 23.2631C80.6044 22.5509 80.9798 20.1557 75.6524 19.7673C74.6018 19.7025 73.9266 20.4144 73.1762 20.8677C73.5516 21.1915 73.9266 21.7093 74.1517 22.227C73.4764 21.5799 72.2759 20.738 71.075 20.5438C69.9496 20.3499 69.1993 21.0618 67.9988 21.5799C68.2235 21.7738 68.4489 22.0977 68.7488 22.4864C67.6982 21.9038 66.9482 21.7096 65.5226 22.1625C64.5471 22.4212 62.6714 23.1335 61.2458 24.8815C60.3455 27.6654 76.4024 24.5577 76.4024 24.5577L83.0058 23.2631Z" fill="#3B3B3B"/>
<path d="M97.1118 24.2989C97.1118 24.2989 97.1118 23.5867 97.0367 22.9396C97.0367 22.8102 96.4366 22.4864 96.4366 22.357L96.2867 22.2273C96.2867 22.2273 97.4872 21.6447 98.3875 21.9686C99.3626 22.2273 99.8879 23.328 99.8879 23.328C101.614 22.8102 101.764 23.3928 102.589 24.1696C104.39 23.8457 104.615 24.4283 105.741 25.8528C105.741 25.8528 104.39 25.6586 101.764 26.0467C99.2126 26.3702 97.1118 24.2341 97.1118 24.2989Z" fill="#0B0B0B"/>
<path d="M96.8116 23.9751C96.8116 23.9751 97.2618 23.6512 97.1115 23.5864C97.9366 23.198 99.0624 22.7451 99.5877 23.9751C101.313 23.457 101.539 24.1693 102.364 24.9464C104.465 24.1047 104.614 25.1402 104.765 25.5935C104.09 25.5935 103.114 25.6583 101.764 25.7877C99.2127 26.1115 96.7365 23.9102 96.8116 23.9751Z" fill="#3B3B3B"/>
<path d="M71.3008 22.3567C71.3008 22.3567 75.5776 23.6512 79.1792 23.457C82.7807 23.1983 88.9333 22.9393 92.2346 24.6225C92.2346 24.6225 95.6111 23.5864 98.7625 24.2986C101.914 25.0106 107.691 29.6719 105.966 34.5919C105.816 34.9158 104.84 35.4335 103.715 35.7574C103.715 35.7574 104.315 37.9584 103.265 39.7709C102.214 41.519 99.8882 44.8855 99.8131 49.5464C99.7383 50.3232 99.5884 51.9416 99.4381 52.7184C93.5854 52.5245 84.5817 50.6468 75.7279 50.7765C75.8027 49.9352 75.8778 49.4171 75.953 48.5755H76.1777C75.7275 46.439 75.5776 45.3384 75.1271 43.72C72.2759 42.1664 69.2744 40.3538 66.7238 36.9225C64.2476 33.4912 71.3008 22.3567 71.3008 22.3567ZM100.263 57.3152C100.263 57.3152 104.915 71.6872 99.4381 77.7078C99.4381 77.7078 100.263 80.4914 98.3875 83.4694C98.0873 84.764 97.7119 85.9295 97.4872 87.224C96.5118 92.5972 94.8607 94.863 94.4106 103.473L89.9083 103.409C89.9083 103.409 89.383 97.1937 87.8075 93.8921C86.9076 92.015 83.3804 89.4898 83.5311 86.9653C83.681 85.023 84.1312 83.4046 87.9582 80.8149C88.258 77.0604 83.9061 73.4994 84.5817 59.5162L100.263 57.3152Z" fill="#0B0B0B"/>
<path d="M98.9128 56.7323C100.113 63.3355 102.889 73.111 97.8622 77.9014C98.1588 79.1161 98.1842 80.3685 97.937 81.5914C97.787 82.3682 97.4868 83.2098 97.1118 84.1159C96.3614 85.6698 96.0612 87.9356 95.8361 89.2949C94.8607 94.6682 94.8607 94.9275 94.4105 103.538L89.9083 103.473C89.9083 103.473 89.383 97.2579 87.8075 93.9566C86.9076 92.0791 85.0315 90.4607 84.8815 87.9359C84.7316 85.994 86.3071 82.1098 90.059 82.2391C89.8339 74.4059 85.6319 75.9594 84.5065 59.6455L98.9128 56.7323ZM71.3008 22.3567C71.3008 22.3567 72.9515 22.8099 74.7521 22.9393C76.553 23.0686 78.5039 22.9393 80.2294 22.8744C83.8309 22.6157 88.9332 22.2919 92.3097 23.9751C92.3097 23.9751 94.1855 23.457 96.2115 23.5864C97.1118 23.6512 98.0125 24.2986 99.0627 24.5577C102.364 25.2696 105.515 29.9954 104.089 34.2683C103.94 34.5922 102.889 34.2683 101.688 34.5922C101.913 35.4987 102.064 37.5703 100.863 39.7713C99.5876 41.9725 97.937 44.8209 98.2368 50.259C90.3585 49.9352 86.8321 49.4822 79.0285 49.1584C78.3533 46.7629 77.9027 44.3677 77.828 43.1377C78.8786 42.6845 79.4783 42.2964 80.3041 41.5193C78.0534 41.8432 77.1527 41.7135 75.8019 41.0661C74.4515 40.4187 72.0504 38.3471 70.8499 36.9877C70.7 36.858 69.8748 38.9942 67.9991 39.0593C67.3235 38.2177 70.1747 35.8222 69.6494 34.9161C67.774 31.6141 71.3008 22.3567 71.3008 22.3567Z" fill="#383838"/>
<path d="M99.5125 51.3591C99.5125 51.3591 99.6624 53.6897 99.6624 54.2723C99.6624 54.9197 100.263 56.8617 100.338 57.7681C99.5125 58.9981 95.9109 61.782 89.383 62.8178C82.9303 63.983 74.3767 55.2436 74.3767 55.2436C74.6018 54.402 75.3522 51.9416 75.8775 50.6471C75.9526 50.5178 76.1025 50.1939 76.1025 50.0645C76.7781 49.2229 99.5125 51.3591 99.5125 51.3591Z" fill="#0B0B0B"/>
<path d="M97.8622 51.5534C97.8622 53.1718 98.162 54.3373 98.3875 55.3731C98.7625 57.2506 99.3626 58.4806 99.3626 59.7106C99.3626 63.4651 93.6602 62.8177 88.8577 62.9473C82.405 64.1128 76.9277 55.3731 76.9277 55.3731C77.3778 53.8841 77.678 52.2012 78.3533 50.7767C78.428 49.9999 78.5783 49.0289 78.6531 48.5757C87.8071 48.5757 94.2599 49.0289 98.0118 49.3521C98.162 50.0644 98.0121 51.2944 97.8622 51.5534Z" fill="#383838"/>
<path d="M90.6587 59.9044C90.6587 59.9044 86.6821 52.2654 74.7517 54.5315C71.9009 61.4583 68.0738 69.4212 70.55 78.0312C68.0738 80.9445 65.2227 82.5632 65.2227 87.9361C65.2227 93.3093 65.5229 94.2158 65.5229 94.2158L74.3015 94.6045C74.3015 94.6045 77.1527 91.4326 78.2781 88.0013C78.5783 87.03 78.8785 85.2822 78.6535 83.2754C78.9533 82.887 80.229 81.9809 80.3793 80.2328C80.3793 80.2328 84.6561 78.2909 87.1323 73.5651C89.4585 69.2915 88.8581 65.6015 90.6587 59.9044Z" fill="#0B0B0B"/>
<path d="M90.6587 59.9045C90.434 59.1926 87.4325 52.2009 76.3276 54.2722C69.8001 69.2916 72.2011 75.5065 73.1762 78.2252C68.7491 83.0804 66.7234 84.1162 67.6241 93.9565H73.4768C76.1777 90.2665 76.7781 88.9069 76.928 84.0517C76.928 83.8575 76.1029 84.4401 75.5025 85.0875C75.953 83.0807 77.2283 82.6923 78.2037 81.4623C78.6539 80.9442 79.0289 80.1675 79.0289 79.1317C84.2811 76.0891 86.232 72.2694 87.3574 68.3203C88.258 65.6016 89.3083 61.1345 90.6587 59.9045Z" fill="#383838"/>
<path d="M72.126 49.4819C72.126 49.4819 74.152 49.5465 75.953 50.0645C77.6788 50.5823 77.6788 50.9058 78.354 51.5536C79.0293 52.2013 80.6799 53.1719 80.3801 54.1429C80.2298 54.661 79.8548 54.7903 79.3295 55.2436C79.1044 55.4378 77.4534 56.9913 77.0784 57.1855C76.8533 57.3149 76.5531 57.5094 76.328 57.6387L75.2026 58.2862C74.4522 58.61 73.927 58.8042 73.1018 58.7394C73.1018 58.7394 71.2261 58.6745 70.0252 57.5742C70.0252 57.5742 69.8752 57.0562 70.1755 56.7974C70.1755 56.7974 68.5996 55.632 68.1494 54.8552C67.6989 54.0787 67.6989 52.9781 67.9995 52.3955C68.1494 51.8123 71.0754 50.1939 72.126 49.4819ZM74.0021 112.472L73.777 114.091C73.777 114.091 73.1018 114.802 68.0746 114.738C62.9723 114.673 61.6219 113.314 61.1717 112.601L60.8719 110.918C60.8719 110.918 61.8473 109.688 62.0724 109.688C63.7231 109.818 69.3507 111.76 73.2525 112.278C73.6267 112.278 73.7015 112.407 74.0021 112.472ZM84.8816 109.17C84.8816 109.882 84.8064 109.882 84.8064 110.594C85.7067 111.177 87.9582 111.501 92.2346 111.436C98.4623 111.306 104.24 113.054 111.293 112.018L111.368 110.853L110.693 110.789L85.7067 109.04L84.8816 109.17Z" fill="#0B0B0B"/>
<path d="M90.3589 111.436H92.2346C96.2867 111.307 100.113 112.083 104.24 112.278C106.416 112.213 109.117 111.76 108.892 110.4L87.5828 108.846C86.3072 110.076 87.2822 111.112 90.3589 111.436ZM65.8983 84.1814C66.5735 84.5698 71.1505 86.9005 78.5787 86.5766C78.4284 87.8066 78.5036 90.2021 75.2022 94.4099C73.5516 96.4815 72.1256 100.107 71.8258 104.703C71.9009 105.739 72.5761 106.645 71.6758 108.005C71.9757 108.846 73.1762 110.53 73.7766 111.565C74.3767 112.602 74.6769 113.767 70.7 113.832C66.6483 113.896 60.1204 113.508 61.0211 110.789C61.4716 109.365 62.7469 107.876 62.8972 107.293C63.0471 106.71 63.0471 104.962 64.3224 103.797C65.4481 100.56 65.0728 97.4528 64.8481 94.5395C64.4727 91.4966 64.3976 86.6414 65.8983 84.1814ZM72.8763 31.42C78.2037 25.2697 73.7015 20.35 65.1483 21.8387C61.6967 22.4213 58.2454 24.4932 58.0199 28.2477C56.8946 28.3771 54.3436 28.5064 53.0679 32.5203C52.0929 35.6278 51.5676 36.2103 49.8414 37.7639C48.716 38.8645 49.9165 41.1304 50.7417 42.7491C53.5181 48.3165 62.0717 48.8342 67.8492 53.0423C69.8001 52.5891 71.8258 50.712 72.4262 49.482C67.549 44.4968 68.5992 42.5549 66.6483 39.9655C68.7495 39.3178 73.5516 36.7932 72.8763 31.42Z" fill="#0B0B0B"/>
<path d="M71.8257 31.0316C72.1256 30.6429 72.6509 29.8016 72.8763 29.4777C72.9514 29.4129 73.7766 30.6429 73.8517 30.5784C75.8774 27.7297 76.4027 23.5864 74.0765 23.1981C73.5512 23.1332 72.5761 22.9393 71.7506 22.68C70.2502 22.2268 68.8997 22.2268 66.4983 22.6155C63.197 23.1332 59.8956 25.2048 59.8956 28.1829C59.8956 28.3771 62.2212 28.9597 62.8968 31.3552C61.771 29.9955 59.8201 28.5065 57.4942 29.8013C55.018 31.1607 56.2937 34.2681 52.9924 37.5049C51.8666 38.6055 52.0169 39.9004 53.2171 42.4897C55.168 46.5684 64.3971 48.7694 69.4243 52.6536C70.6248 52.2004 71.45 51.1646 72.0504 50.3878C68.6739 47.3452 67.3231 44.4965 66.348 42.4249C65.1475 40.0297 63.7967 38.6704 61.1706 36.8571C62.5214 37.3104 63.572 37.7636 64.1717 38.152C64.8469 38.5404 65.8224 38.6052 66.723 38.3462C69.95 37.3758 71.6758 33.4913 71.8257 31.0316Z" fill="#383838"/>
<path d="M104.465 32.0675C104.24 34.5275 102.139 33.2975 101.014 32.8442C98.7625 32.0026 96.5114 31.42 93.8853 31.42C91.2592 31.42 87.8827 31.6142 84.9567 32.2617C80.905 33.2326 79.7041 33.1681 77.9035 32.391C76.1029 31.5494 72.9519 29.4778 72.9519 29.4778C72.9519 29.4778 72.8767 30.1252 73.6271 30.9668C74.6022 32.0026 76.7785 33.2975 79.7045 34.1388C81.1301 34.5275 82.2558 34.2681 83.5315 34.0094C90.2093 32.5852 97.2621 32.3262 103.19 35.4336C103.49 35.563 104.54 35.1746 104.991 34.592C105.59 33.7507 104.465 32.0675 104.465 32.0675Z" fill="#0B0B0B"/>
<path d="M70.3254 56.7322C70.9255 57.056 71.6758 57.2502 72.501 57.8328C72.501 57.8328 71.8258 57.8328 71.5259 57.5741C71.1505 57.3799 70.4002 56.7973 70.3254 56.7322Z" fill="#1E1E1E"/>
<path d="M92.0095 5.39532C91.7844 4.81274 90.1334 3.77661 86.3071 3.77661C82.1803 3.77661 80.9798 4.87726 80.905 5.45984C80.905 5.65404 80.6047 7.72597 80.5296 8.56727C80.5296 8.56727 80.5296 9.60308 80.6044 11.1566C80.6795 12.1924 80.9798 12.775 81.1297 14.1347C81.2796 15.5586 81.7301 16.465 82.5553 17.6305C82.9306 17.8244 83.2305 18.0189 83.6059 18.0837C85.1066 18.3425 87.7327 18.4073 89.1583 18.0837C89.9835 17.8896 91.0341 16.6595 91.2591 15.5589C91.559 14.1995 91.8592 13.2283 91.9344 12.387C92.0843 11.5457 92.1594 9.66792 92.2342 9.14985C92.4597 7.72597 92.0843 5.52468 92.0095 5.39532Z" fill="#383838"/>
<path d="M84.1311 85.4114C84.1311 85.4114 88.1081 86.9004 97.9373 85.6056C97.9373 85.6056 95.1613 97.6469 96.4369 103.667C96.4369 103.667 97.7122 105.221 107.166 108.199C107.166 108.199 111.368 109.105 111.218 110.918C111.218 110.918 111.368 111.307 106.266 111.177C101.164 111.047 96.3618 110.27 92.9853 110.27C89.6088 110.27 86.0072 110.4 85.4072 109.559C84.7319 108.782 85.5571 106.775 86.5325 105.609C87.5835 104.379 87.2829 103.473 87.2081 101.272C86.9823 95.5104 81.88 89.5546 84.1311 85.4114Z" fill="#0B0B0B"/>
<path d="M83.3056 86.5121C82.7803 87.1595 83.3804 89.6192 84.1308 92.0147C84.8811 94.4098 86.5322 95.8344 86.9072 99.7831C87.2822 103.667 87.3573 104.185 86.0816 106.451C84.806 108.716 84.431 110.788 88.8577 110.853C93.2844 110.918 95.6858 110.788 100.188 111.371C104.69 111.954 106.265 112.148 108.742 111.824C111.218 111.501 111.743 110.788 110.693 110.141C109.642 109.494 105.29 108.782 103.414 107.487C101.613 106.321 96.5113 104.379 96.4366 103.861C96.2115 102.113 96.1363 95.7692 96.5113 93.6976C96.8867 91.6257 97.4116 88.6479 97.5619 87.8711C97.7122 87.0943 98.4622 86.3173 97.1866 86.5763C95.9113 86.835 91.1092 87.4179 87.5076 87.2237C83.9061 87.0298 83.5311 86.3176 83.3056 86.5121Z" fill="#3B3B3B"/>
<path opacity="0.3" d="M85.857 106.516C87.1323 107.034 89.0084 107.422 90.434 107.422C90.434 107.422 89.9083 109.559 90.7339 110.853C91.559 112.148 84.7313 111.371 84.7313 111.371L84.4314 106.775L85.857 106.516ZM105.741 112.083C106.941 111.76 107.767 110.594 106.791 109.494C105.741 108.393 104.84 108.199 106.191 108.135C107.542 108.07 112.494 110.659 112.494 110.659L109.942 112.666L105.741 112.083ZM83.0806 89.0366C84.8064 89.5547 87.4325 89.684 89.6836 89.6192C91.9344 89.5547 95.3109 89.2953 97.4872 88.6482C99.6628 88.0008 98.7625 89.3601 98.7625 89.3601L97.562 90.3314C97.562 90.3314 94.7108 91.3024 90.059 91.2379C84.5817 91.173 82.9307 90.6553 82.9307 90.6553L83.0806 89.0366ZM83.2305 92.2737C84.9567 92.7918 87.5825 92.9211 89.8336 92.8563C92.0843 92.7918 95.0858 92.7918 97.2618 92.0795C98.1621 91.8208 97.6371 92.9211 97.6371 92.9211L97.2618 93.5037C97.2618 93.5037 94.3354 94.4101 89.7584 94.345C84.2811 94.2805 83.3057 93.8918 83.3057 93.8918L83.2305 92.2737Z" fill="#0B0B0B"/>
<path d="M78.2785 46.8926C78.2785 47.3458 84.1312 49.8703 87.3574 50.3884C90.5839 50.9061 97.3369 50.3884 98.3871 50.1942L98.2368 51.1006C98.2368 51.1006 90.2086 52.1365 84.056 50.7123C77.9031 49.2881 78.5787 48.9642 78.5787 48.9642L78.2785 46.8926Z" fill="#0B0B0B"/>
<path d="M65.748 102.114C66.6483 102.502 69.8748 103.214 71.9757 102.826C72.2755 102.761 71.9757 98.3588 72.8012 96.3521C74.0017 93.5682 75.9526 91.3024 76.8525 86.3827C73.7011 86.1236 70.0999 85.4114 68.2238 84.8933C65.8231 91.2378 66.6486 96.6756 65.748 102.114ZM70.7755 106.192C71.3008 106.322 71.6758 106.84 71.8261 106.516C72.126 105.933 71.3008 104.833 71.2257 104.056V103.991C70.5504 103.474 65.9734 103.409 66.2736 103.668C65.7484 104.509 64.9232 104.38 64.6233 106.063C64.4734 106.904 65.6739 106.192 66.7989 106.128C64.7733 107.293 62.4474 108.782 62.072 110.077C61.6219 111.889 62.3722 112.407 64.6233 113.379C66.5742 113.767 68.9001 113.832 70.7007 113.767C72.7268 113.443 73.1021 112.602 72.5017 111.436C71.6007 109.688 71.0006 107.422 70.7755 106.192Z" fill="#383838"/>
<path d="M71.6007 22.0977C74.0769 23.3277 77.5285 23.0041 78.8038 22.9393C79.104 22.9393 82.1055 22.486 82.2554 22.5506C82.5553 22.6154 82.5553 22.8096 82.5553 22.8096C82.5553 22.8096 81.4299 23.3273 78.879 23.4567C76.4779 23.5861 73.6267 23.4567 72.0512 22.8096C70.1751 22.0977 71.6007 22.0977 71.6007 22.0977ZM97.1118 23.3277C97.562 23.5864 100.488 24.5577 101.764 25.7228C102.889 26.759 102.289 26.6941 102.064 26.4351C101.764 26.1112 99.4377 24.7519 98.5374 24.4283C97.6371 24.1048 96.5114 23.5219 96.5114 23.3925C96.5114 23.2631 97.1118 23.3277 97.1118 23.3277Z" fill="#0B0B0B"/>
<path d="M71.2253 50.1938C73.4012 50.0645 75.6523 50.5177 77.0779 51.8122C77.8283 52.4596 79.0288 53.1716 78.8789 53.819C78.8789 54.0132 78.4284 54.5312 78.0538 54.9196C77.8287 55.1783 77.1535 55.7609 76.928 55.9554C76.6282 56.1496 75.5776 56.8619 75.3525 56.9913C75.1274 57.1209 74.8272 57.4448 74.6021 57.5093C73.8521 57.8332 73.0266 57.5741 72.2762 57.2506C71.5262 56.9267 72.4265 56.8619 71.601 56.3441C69.5753 55.1141 68.4496 54.2722 69.2751 51.877C69.3499 51.4238 70.175 50.9057 71.2253 50.1938Z" fill="#383838"/>
<path opacity="0.4" d="M52.0925 35.369C45.3395 37.6997 28.1568 45.08 23.28 47.3458C27.3317 49.5468 29.2074 54.8552 29.8079 60.2284C29.8826 60.7465 29.9578 61.1997 30.0329 61.7175C30.1077 62.1707 30.1829 62.4943 30.2577 62.6888C30.2577 62.7536 30.2576 62.883 30.3328 62.9475C34.7599 52.5249 50.5914 41.5193 51.1918 40.6777C51.4917 40.2893 50.8164 38.6061 51.867 36.988C53.2178 34.9158 55.8443 34.0093 52.0925 35.369ZM68.1494 84.2462C71.6007 78.2904 71.6758 72.5933 71.6007 65.9252C71.6007 63.1414 73.9265 59.1923 72.7264 60.293C68.2242 64.6301 56.8945 72.7875 48.716 73.2404C60.1959 72.9169 64.6978 77.9017 68.1494 84.2462Z" fill="#0B0B0B"/>
<path d="M16.6769 52.8481C20.9537 50.1939 43.0884 40.0303 48.4158 38.6058C53.7428 37.1167 52.0921 35.3687 52.0921 35.3687C52.0921 35.3687 30.4827 43.3961 17.5772 50.3232" fill="#0B0B0B"/>
<path opacity="0.4" d="M79.7041 34.139C77.9783 33.5564 76.6278 35.3045 77.078 36.9877C77.5285 38.6709 81.5802 40.548 81.3548 46.6984C81.2049 51.7481 79.9292 53.8194 79.9292 53.8194L77.078 50.7123C77.078 50.7123 76.6278 43.7203 75.6524 42.6845C74.6773 41.6487 71.6007 39.7713 70.4002 38.8003C69.1996 37.829 71.7506 36.5345 71.6007 34.7216C71.4508 32.9738 72.8764 29.478 72.8764 29.478L79.7041 34.139ZM90.1338 61.7171C89.9839 66.5723 91.2595 73.7585 91.7845 77.1898C92.3098 80.6207 92.985 80.8798 91.7845 82.4336C90.5839 83.9227 89.0084 86.3827 89.0084 86.3827L83.831 85.994C83.831 85.994 87.9578 81.4623 88.1825 80.6207C88.4076 79.7794 86.0817 73.3704 86.0817 73.3704L90.1338 61.7171ZM80.1546 16.4009C81.2052 18.4073 82.4805 19.3138 84.5062 19.8967C85.7067 20.2851 90.4336 20.8031 92.3098 18.9902C93.1349 18.1486 92.6096 15.8828 92.6096 15.8828L88.3328 18.8606L82.5553 17.9544L81.8801 16.4654L80.1546 16.4009Z" fill="#0B0B0B"/>
<path d="M80.6044 20.8677C82.5553 21.9683 87.4325 23.0041 88.783 23.1983C90.1334 23.457 92.3094 21.9683 93.36 21.5799C94.4857 21.1267 96.4366 20.8677 98.6874 22.6157C98.9124 22.8099 98.1621 23.6516 98.1621 23.6516C98.0869 23.5867 97.6368 23.5867 97.0363 23.3277C96.4363 23.069 95.911 22.8745 95.0107 22.9393C91.2588 23.3277 90.6587 24.4283 87.3574 23.7806C84.056 23.1329 83.2305 22.6154 80.0043 22.7448" fill="#3B3B3B"/>
<path d="M80.6044 20.8677C82.5553 21.9683 87.4325 23.0041 88.783 23.1983C90.1334 23.457 92.3094 21.9683 93.36 21.5799C94.4857 21.1267 96.4366 20.8677 98.6874 22.6157C98.9124 22.8099 98.1621 23.6516 98.1621 23.6516C98.0869 23.5867 97.6368 23.5867 97.0363 23.3277C96.4363 23.069 95.911 22.8745 95.0107 22.9393C91.2588 23.3277 90.6587 24.4283 87.3574 23.7806C84.056 23.1329 83.2305 22.6154 80.0043 22.7448" stroke="#0B0B0B" stroke-width="10.8638" stroke-miterlimit="10" stroke-linejoin="round"/>
<path d="M79.9292 21.0618C82.4053 21.9682 87.2074 22.9392 88.5579 23.1982C89.9083 23.4573 92.0843 22.2918 93.1349 21.7092C95.011 20.6734 97.4117 21.515 98.5374 22.6156C99.2874 23.3276 99.588 23.7808 99.588 23.975C99.588 24.2337 98.6877 23.975 98.6877 23.975C98.1624 23.7808 97.562 23.7163 97.1122 23.4569C96.5117 23.1982 95.9113 22.8098 95.0114 22.8744C91.2595 23.2631 90.5091 24.3634 87.2829 23.716C84.0568 23.0685 83.2312 22.486 79.78 22.6798" fill="#3B3B3B"/>
<path d="M68.2993 81.5269C68.1494 81.3976 68.4492 81.2682 68.2993 81.2682C67.3242 81.2682 65.9734 80.6208 65.2227 79.7143C61.9965 75.7008 57.2692 73.0466 48.7156 73.2408C35.8849 73.4995 30.7826 68.9682 29.8075 60.2933C29.2822 55.5675 27.7815 50.971 24.7052 48.3813L22.9042 49.3526C26.3555 51.942 27.4812 56.1501 28.2316 61.9117C29.4321 70.5866 37.5356 74.6004 46.9898 74.7298C56.819 74.8592 60.3455 76.6072 64.0218 80.8801C65.2223 82.2395 66.5731 82.6927 67.6234 82.8869L68.2993 81.5269Z" fill="#0B0B0B"/>
<path opacity="0.4" d="M103.114 39.9006C103.34 40.8716 103.94 42.749 105.14 43.6552C105.666 44.1084 105.741 44.2377 105.29 44.2377C104.84 44.2377 101.539 44.1084 101.539 44.1084L100.638 42.749L103.114 39.9006Z" fill="#0B0B0B"/>
</svg>
