<svg width="117" height="117" viewBox="0 0 117 117" fill="none" xmlns="http://www.w3.org/2000/svg">
<g clip-path="url(#clip0_55_229)">
<path d="M10.5994 104.734L0.88623 1.08081L116.886 1.28911L106.616 104.734L59.324 116.692L10.5994 104.734Z" fill="#303030"/>
<path d="M59.3241 106.681L59.3241 10.9526L107.094 11.0915L98.5751 96.7398L59.3241 106.681Z" fill="#232323"/>
<path d="M95.2307 23.1885L21.7456 23.1885L23.7363 35.7012L58.6074 35.7012L24.2939 48.5627L26.2836 60.6589L76.84 60.6589L75.0083 77.5516L57.8908 80.4719L42.3665 76.9962L41.1719 67.4021L26.9207 67.4021L28.831 87.3548L59.4035 94.7932L88.7029 86.6597L92.4448 47.6585L61.4728 47.6585L95.2297 35.4235L95.2307 23.1885Z" fill="#696969"/>
</g>
<defs>
<clipPath id="clip0_55_229">
<rect width="116" height="116" fill="white" transform="translate(0.88623 0.88623)"/>
</clipPath>
</defs>
</svg>
