<svg width="117" height="117" viewBox="0 0 117 117" fill="none" xmlns="http://www.w3.org/2000/svg">
<g clip-path="url(#clip0_55_238)">
<path d="M10.2358 104.372L0.522667 0.716797L116.523 0.925097L106.252 104.372L58.9605 116.329L10.2358 104.372Z" fill="#2F2F2F"/>
<path d="M58.9605 106.319V10.5886L106.73 10.7275L98.2115 96.3766L58.9605 106.319Z" fill="#212121"/>
<path d="M53.8453 21.9551H41.2162V85.6705L31.3937 84.0368V75.4597L19.7001 73.826L19.7001 93.0223L53.8453 100.783V21.9551ZM63.3189 21.9551L98.2808 21.9551L95.9421 34.1672H76.6655V54.2073H95.9421L93.6033 94.656L63.3189 100.783V88.1211L83.7808 81.9946L84.9623 65.2489L63.3189 67.9854V21.9551Z" fill="#858585"/>
</g>
<defs>
<clipPath id="clip0_55_238">
<rect width="116" height="116" fill="white" transform="translate(0.522705 0.522949)"/>
</clipPath>
</defs>
</svg>
