<svg width="146" height="130" viewBox="0 0 146 130" fill="none" xmlns="http://www.w3.org/2000/svg">
<path d="M66.9146 17.3684L70.0546 22.6385C70.7606 23.611 71.5254 24.4719 72.4262 25.2735C75.0672 27.6041 77.5289 30.0915 79.7945 32.7187C85.1148 38.9613 88.7034 45.8939 91.2661 53.3916C92.803 57.9717 93.6377 62.6701 93.7002 67.4211C93.9575 81.6247 88.5085 93.8208 77.5222 103.957C75.7352 105.564 73.8046 107.039 71.7496 108.366C70.6613 108.366 70.1465 107.62 69.698 106.934C68.8811 105.66 68.3374 104.262 68.0949 102.81C67.7088 101.092 67.4551 99.3735 67.5801 97.5992L67.5801 96.7975C67.4919 96.6267 66.5322 17.7725 66.9146 17.3684Z" fill="#2E2E2E"/>
<path d="M66.9146 17.1943C66.786 16.9643 66.6573 17.1385 66.5286 17.2502C66.5911 18.4001 66.1425 19.4252 65.4402 20.4044C64.6681 21.3769 63.646 22.1227 62.6201 22.9244C56.9211 27.3337 52.4354 32.6596 48.8431 38.6164C44.0633 46.6332 41.5998 55.225 40.9012 64.2703C40.5814 67.5329 42.0558 79.0456 43.2066 82.3673C46.3466 91.1858 51.9868 98.5751 59.2926 104.989C61.0869 106.533 63.0062 107.965 64.9917 109.342C65.5689 109.342 65.6314 108.882 65.7638 108.54C66.0169 107.809 66.2098 107.062 66.3411 106.306L67.6279 97.7176L66.9146 17.1943Z" fill="#454545"/>
<path d="M70.0546 111.855C70.1833 110.541 70.8893 109.45 71.6577 108.363C70.8856 108.077 70.312 107.509 69.8634 106.874C69.4766 106.274 69.1565 105.641 68.9075 104.985C68.0103 102.58 67.8191 100.057 67.5618 97.5992L67.5618 96.1108C67.2419 96.3408 67.1757 98.2859 67.1757 98.575C66.9886 101.173 66.6029 103.756 66.0212 106.306C65.83 107.338 65.7013 108.366 64.9917 109.283C64.9917 109.398 64.9917 109.513 65.0542 109.684C66.2087 112.72 66.5249 115.811 66.7198 118.962L66.7198 120.112C66.7198 121.485 66.6573 121.196 67.9331 121.656C68.4479 121.827 69.0215 121.886 69.5362 122.228C69.9223 122.228 69.9848 121.942 69.9848 121.712L69.7936 119.823L69.7936 114.553C69.7311 113.633 69.9223 112.72 70.051 111.859L70.0546 111.855Z" fill="#C2BFBF"/>
</svg>
