<svg width="182" height="175" viewBox="0 0 182 175" fill="none" xmlns="http://www.w3.org/2000/svg">
<g clip-path="url(#clip0_55_171)">
<path d="M138.878 160.74C138.259 161.113 138.065 161.368 138.613 161.079C139.001 160.859 139.638 160.4 139.532 160.383C139.479 160.383 139.178 160.553 138.878 160.74ZM137.658 161.504C137.34 161.742 137.34 161.759 137.729 161.572C137.941 161.47 138.118 161.351 138.118 161.317C138.118 161.181 138.029 161.215 137.658 161.504ZM136.774 162.014C136.456 162.252 136.456 162.269 136.845 162.082C137.057 161.98 137.234 161.861 137.234 161.827C137.234 161.691 137.146 161.725 136.774 162.014ZM135.891 162.524C135.573 162.761 135.573 162.778 135.961 162.592C136.174 162.49 136.35 162.371 136.35 162.337C136.35 162.201 136.262 162.235 135.891 162.524ZM134.548 163.203C133.876 163.543 133.911 163.679 134.583 163.356C134.883 163.203 135.113 163.05 135.113 163.016C135.113 162.897 135.095 162.914 134.548 163.203Z" fill="white" fill-opacity="0.85"/>
<g filter="url(#filter0_dd_55_171)">
<path fill-rule="evenodd" clip-rule="evenodd" d="M45.2256 97.1226L49.2341 97.1268L49.253 79.3671L55.4176 94.8616C56.1494 96.7199 57.1287 97.3751 59.0867 97.3772C61.0453 97.3793 62.0253 96.7262 62.7611 94.8694L68.9586 79.388L68.9397 97.1477L72.9173 97.152L72.9361 79.4262C72.9379 77.706 72.3264 76.8776 71.0726 76.4289C68.0445 75.3588 65.993 76.2862 65.073 78.5917L58.9985 93.8326L53.1402 78.579C52.2552 76.2716 50.1755 75.3399 47.1452 76.4035C45.8596 76.8495 45.247 77.6758 45.2451 79.3968L45.2263 97.1226L45.2256 97.1226ZM76.2677 82.6989L80.2453 82.7031L80.2349 92.4781C80.2041 93.0281 80.3859 94.2679 82.5893 94.305C83.6907 94.3393 91.1871 94.3141 91.2482 94.3142L91.2605 82.6801L95.269 82.6843C95.2992 82.6843 95.2522 98.5503 95.2521 98.6197C95.2781 102.543 90.9327 103.364 88.9438 103.431L76.3376 103.418L76.3408 100.389C76.3408 100.389 88.9168 100.437 88.9471 100.403C91.5177 100.13 91.2134 98.6848 91.2139 98.2027L91.2151 97.0318L82.7394 97.0228C78.792 96.9507 76.2848 95.0195 76.257 92.7825C76.2572 92.5765 76.3594 82.8031 76.2677 82.6989ZM162.23 71.5355C159.783 71.4642 157.916 71.7029 156.293 72.4926C155.835 72.6989 155.13 72.6981 155.038 73.3522C155.283 73.6263 155.343 74.0745 155.526 74.4542C155.923 75.1435 156.565 76.0722 157.146 76.5549C157.758 77.1071 158.4 77.6578 159.072 78.1406C160.295 78.9673 161.641 79.4161 162.772 80.245C163.475 80.7264 164.147 81.3481 164.82 81.8988C165.125 82.1745 165.37 82.5882 165.768 82.7599L165.768 82.692C165.554 82.3817 165.493 81.9342 165.31 81.5884L164.393 80.5553C163.508 79.2469 162.376 78.0747 161.183 77.1107C160.236 76.3522 158.095 75.2831 157.698 74.0439C157.668 74.0091 157.637 74.0091 157.637 73.9744C158.31 73.8709 159.107 73.5979 159.719 73.425C160.76 73.1176 161.708 73.1865 162.779 72.8783C163.269 72.706 163.758 72.5692 164.249 72.3977L164.249 72.0876C163.699 71.4676 163.333 70.6071 162.722 70.0557C161.163 68.5398 159.451 67.0577 157.708 65.817C156.729 65.0931 155.537 64.6445 154.498 64.0587C154.16 63.8863 153.548 63.7823 153.305 63.438C152.754 62.6799 152.48 61.6814 152.053 60.7861C151.157 58.8221 150.323 56.8237 149.55 54.7944C149.032 53.4516 148.665 52.109 148.025 50.8687C144.849 45.0143 141.456 41.4662 136.166 37.9839C135.036 37.2599 133.69 36.9492 132.251 36.5689C131.487 36.4987 130.722 36.4639 129.957 36.3937C129.498 36.1865 129.009 35.5326 128.55 35.222C126.808 33.9813 122.312 31.2574 121.023 34.8352C120.194 37.0714 122.242 39.2767 122.975 40.4137C123.495 41.2057 124.135 42.102 124.503 42.9964C124.745 43.5814 124.776 44.1669 124.99 44.7865C125.508 46.336 125.935 48.0228 126.576 49.4343C126.911 50.1575 127.277 50.9154 127.705 51.5699C127.95 51.949 128.409 52.1215 128.469 52.741C128.039 53.4286 128.009 54.4614 127.763 55.3213C126.688 59.2095 127.08 63.9941 128.668 66.8862C129.158 67.7468 130.287 69.641 131.88 68.9207C133.257 68.268 132.953 66.3399 133.353 64.5855C133.446 64.2068 133.384 63.9313 133.567 63.6562L133.567 63.7248C133.964 64.6887 134.392 65.6187 134.819 66.5479C135.735 68.2359 137.386 70.0273 138.793 71.1982C139.495 71.8184 140.075 72.8866 141.024 73.2309L141.024 73.1614L140.932 73.1613C140.749 72.8526 140.473 72.7142 140.26 72.4725C139.71 71.8525 139.099 71.0944 138.64 70.4058C137.388 68.4768 136.258 66.3419 135.22 64.1377C134.731 63.0704 134.304 61.8997 133.909 60.8325C133.755 60.4196 133.755 59.8002 133.42 59.5584C132.959 60.3493 132.317 61.0028 131.947 61.9319C131.395 63.4116 131.302 65.2351 131.117 67.094C130.993 67.1625 131.024 67.1278 130.963 67.1972C129.985 66.9207 129.649 65.7841 129.283 64.8203C128.399 62.3756 128.218 58.4521 129.017 55.6304C129.232 54.9078 130.184 52.6371 129.787 51.9486C129.602 51.2943 129.022 50.881 128.686 50.3645C128.258 49.7447 127.862 48.9181 127.557 48.195C126.825 46.2665 126.49 44.1324 125.696 42.2047C125.299 41.2747 124.689 40.3446 124.17 39.5526C123.589 38.6224 122.947 37.9684 122.49 36.8663C122.338 36.4874 122.124 35.8678 122.339 35.4545C122.43 35.1792 122.523 35.076 122.766 34.9729C123.165 34.6292 124.297 35.1126 124.724 35.2843C125.826 35.8362 126.774 36.3193 127.721 37.0431C128.18 37.3877 128.639 38.0415 129.19 38.2149L129.802 38.2155C130.781 38.4572 131.882 38.2864 132.799 38.5975C134.421 39.1492 135.888 40.0116 137.204 40.9773C141.239 43.838 144.51 47.9028 146.768 52.7581C147.134 53.5499 147.286 54.2729 147.592 55.0993C148.234 56.787 149.057 58.5081 149.698 60.1264C150.308 61.7794 150.949 63.4324 151.834 64.7748C152.324 65.4981 154.159 65.8788 154.985 66.2576C155.566 66.5336 156.514 66.844 157.065 67.2241C158.135 67.9133 159.144 68.7752 160.153 69.5678C160.641 69.9509 162.169 70.8126 162.23 71.5355Z" fill="#919191"/>
<path fill-rule="evenodd" clip-rule="evenodd" d="M131.051 41.5941C130.629 41.5938 130.208 41.6514 129.798 41.7656L129.798 41.8342L129.889 41.8343C130.133 42.3853 130.561 42.7646 130.867 43.2462C131.08 43.7972 131.325 44.3483 131.538 44.8993L131.63 44.796C132.059 44.4871 132.243 43.9365 132.244 43.0764C132.091 42.8695 132.06 42.6288 131.909 42.3872C131.694 42.0422 131.327 41.8698 131.051 41.5941Z" fill="#919191"/>
<path fill-rule="evenodd" clip-rule="evenodd" d="M98.3445 97.1791L109.819 97.1912C111.165 97.1927 112.48 96.884 113.521 96.3335C115.235 95.4421 116.094 94.2373 116.096 92.6544L116.099 89.3505C116.1 88.0777 115.122 86.8379 113.258 86.0437C112.248 85.5952 111.024 85.3871 109.831 85.3859L104.997 85.3807C103.375 85.379 102.611 84.8267 102.428 83.6231C102.398 83.4858 102.398 83.3477 102.398 83.2104L102.4 81.1793C102.4 81.042 102.4 80.9386 102.431 80.8014C102.616 79.872 103.044 79.5971 104.452 79.4613C104.575 79.4614 104.728 79.4269 104.85 79.427L116.263 79.4391L116.266 76.4453L105.037 76.4334C103.415 76.4317 102.589 76.5681 101.824 76.808C99.4364 77.6656 98.3947 78.9727 98.3922 81.2792L98.3895 83.895C98.3873 85.9261 100.435 87.6484 103.832 88.0647C104.229 88.0651 104.596 88.1002 104.994 88.1007L109.125 88.1051C109.278 88.1052 109.43 88.1054 109.552 88.1402C110.838 88.2789 111.358 88.5201 111.755 89.0358C111.969 89.3114 112.061 89.553 112.061 89.8631L112.058 92.4789C112.058 92.789 111.873 93.2022 111.475 93.5451C111.137 93.8895 110.556 94.0957 109.791 94.1627C109.638 94.1626 109.517 94.1971 109.362 94.197L98.3477 94.1853L98.3445 97.1791ZM141.004 91.9912C141 95.0891 143.018 96.8115 147.149 97.1606C147.516 97.1957 147.914 97.2309 148.281 97.2313L158.684 97.2423L158.687 94.247L148.222 94.2359C145.866 94.2334 144.98 93.5783 144.981 91.9954L144.998 76.4743L141.019 76.4701L141.003 91.9912L141.004 91.9912ZM118.636 92.1395L118.648 81.4712C118.651 78.752 120.335 77.1023 123.701 76.589C124.038 76.5199 124.436 76.5203 124.772 76.5207L132.36 76.5288C132.727 76.5291 133.064 76.5295 133.462 76.5993C136.796 77.1197 138.508 78.7731 138.505 81.4922L138.493 92.1606C138.491 94.3644 137.756 95.5331 136.103 96.2888L140.046 100.286L135.395 100.281L132.216 97.0761L129.002 97.2795L124.75 97.275C124.016 97.2742 123.251 97.1708 122.394 96.8945C119.856 96.1335 118.634 94.618 118.636 92.1395ZM122.951 91.8702C122.951 92.0422 122.981 92.1788 123.012 92.3524C123.256 93.5908 124.295 94.2807 125.855 94.2824L129.497 94.2862L126.166 90.9094L130.816 90.9143L133.719 93.8433C134.241 93.5337 134.608 93.052 134.731 92.4327C134.762 92.2607 134.762 92.1242 134.762 91.9854L134.773 81.7297C134.773 81.6256 134.773 81.489 134.743 81.3502C134.499 80.1805 133.46 79.526 131.929 79.5244L125.871 79.518C124.096 79.5161 122.964 80.375 122.962 81.7172L122.951 91.8702ZM160.521 97.245L161.102 97.2456L161.105 94.7672L161.9 94.768L161.901 94.2512L159.728 94.2489L159.728 94.7657L160.523 94.7665L160.521 97.245ZM164.988 97.2498L165.508 97.2503L165.511 94.255L164.715 94.2542L164.01 96.3192L163.309 94.2527L162.483 94.2518L162.48 97.2471L163.031 97.2477L163.033 94.9759L163.795 97.2485L164.193 97.2489L164.96 94.978L164.991 94.978L164.989 97.2498L164.988 97.2498Z" fill="#3E3E3E"/>
<path fill-rule="evenodd" clip-rule="evenodd" d="M47.6726 69.2804L45.4506 57.6447L46.5829 57.6459L47.8599 65.2879C48.012 66.0795 48.134 66.871 48.225 67.6626L48.6251 65.4946L50.2553 57.649L51.5706 57.6504L52.7885 63.5374C53.0929 64.9833 53.3054 66.3597 53.4569 67.6681C53.5496 66.9115 53.7035 66.0508 53.8883 65.1222L55.2115 57.655L56.3746 57.6563L54.0066 69.2871L52.9354 69.286L51.1398 60.4385L50.8655 59.0613C50.8039 59.5773 50.7116 60.0254 50.6192 60.438L48.8042 69.2816L47.6726 69.2804ZM57.0726 63.6461C57.0747 61.6497 57.4741 60.1359 58.2399 59.0691C59.0063 58.0031 59.9855 57.4881 61.1486 57.4893C61.8824 57.4901 62.5865 57.6976 63.1977 58.1796C63.809 58.6616 64.2979 59.3509 64.6645 60.2461C65.0003 61.1752 65.1829 62.2423 65.1816 63.5158C65.1797 65.2368 64.8416 66.6134 64.1361 67.7134C63.3701 68.9175 62.36 69.5012 61.1359 69.4999C59.8809 69.4985 58.872 68.878 58.1087 67.6723C57.4056 66.5376 57.0709 65.195 57.0726 63.6461ZM58.235 63.6473C58.2335 65.0929 58.5073 66.1947 59.0578 66.9868C59.6386 67.7788 60.3109 68.193 61.1064 68.1939C61.9328 68.1947 62.6369 67.782 63.1884 66.9912C63.7399 66.2003 64.0168 65.0304 64.0185 63.4814C64.0196 62.4493 63.8984 61.5883 63.5927 60.7973C63.3794 60.1777 63.0432 59.6952 62.6149 59.3507C62.1925 58.9907 61.6766 58.7966 61.1466 58.7984C60.2893 58.7975 59.5853 59.1747 59.0646 59.9664C58.5131 60.7564 58.2368 61.995 58.235 63.6473ZM66.582 69.3004L66.5943 57.6671L70.358 57.6711C71.1226 57.6719 71.7041 57.7759 72.0714 58.017C72.4689 58.2241 72.7744 58.5685 72.9879 59.0848C73.2321 59.6011 73.3543 60.1867 73.3536 60.8401C73.3526 61.7357 73.1681 62.4235 72.7396 62.9739C72.3406 63.5242 71.7593 63.8676 70.9636 64.0388C71.3001 64.2459 71.5139 64.4529 71.6975 64.659C72.0337 65.1068 72.3089 65.5892 72.5833 66.1395L74.0482 69.3076L72.641 69.3061L71.5113 66.8951C71.0535 65.9651 70.7483 65.3114 70.5038 65.001C70.2902 64.6568 70.0758 64.4151 69.862 64.3115C69.6481 64.2079 69.3725 64.1389 69.0056 64.1386L67.7204 64.1372L67.7149 69.3001L66.582 69.2989L66.582 69.3004ZM67.7211 62.7965L70.1077 62.799C70.6275 62.7996 71.0254 62.7314 71.3012 62.5936C71.5763 62.4566 71.7906 62.2153 71.9747 61.9402C72.1279 61.6302 72.1894 61.2515 72.1898 60.8388C72.1904 60.2541 72.038 59.8066 71.7325 59.4622C71.427 59.1178 70.9985 58.9453 70.3868 58.9447L67.7245 58.9419L67.7211 62.7965ZM75.0886 69.3095L75.1009 57.6761L76.2332 57.6773L76.227 63.4597L80.4254 57.6818L81.9547 57.6834L78.3699 62.3951L82.0953 69.3169L80.5962 69.3153L77.6041 63.4611L76.2251 65.284L76.2208 69.3107L75.0886 69.3095ZM82.6198 65.5662L83.6911 65.464C83.7515 66.0835 83.8737 66.5996 84.0873 66.9439C84.2707 67.3229 84.5763 67.5986 84.943 67.8049C85.3103 68.046 85.7381 68.1498 86.1976 68.1503C86.8704 68.151 87.3603 67.9448 87.7282 67.6019C88.0955 67.2235 88.2798 66.7416 88.2804 66.1569C88.2808 65.8129 88.2201 65.5374 88.0976 65.2619C87.9758 65.0211 87.7613 64.8141 87.4858 64.6418C87.211 64.4695 86.6297 64.2282 85.7426 63.9519C84.9474 63.6757 84.3661 63.3997 84.0297 63.1239C83.6893 62.878 83.4147 62.5327 83.2352 62.1249C83.0519 61.7112 82.9605 61.2298 82.961 60.7137C82.962 59.7495 83.2385 58.993 83.759 58.4081C84.3103 57.7893 85.0451 57.5147 85.9627 57.5156C86.5744 57.5163 87.125 57.6542 87.6143 57.9301C88.0728 58.206 88.44 58.619 88.7145 59.1362C88.9813 59.7092 89.1173 60.3479 89.1102 60.9949L88.0389 61.0971C88.0089 60.3403 87.7955 59.7893 87.4592 59.4102C87.092 59.0311 86.6334 58.8586 85.9915 58.8579C85.3482 58.8572 84.859 59.0287 84.5521 59.3385C84.386 59.4854 84.2524 59.6738 84.162 59.8887C84.0715 60.1035 84.0267 60.3391 84.031 60.5768C84.0305 61.0589 84.1529 61.4031 84.3974 61.6787C84.6413 61.9196 85.1924 62.1956 86.0487 62.4719C86.905 62.7135 87.4863 62.9556 87.8228 63.1279C88.343 63.4378 88.7397 63.817 88.984 64.2994C89.2592 64.7818 89.3806 65.3666 89.3799 66.0208C89.3829 66.6607 89.2343 67.2899 88.9494 67.8439C88.6731 68.3944 88.3057 68.8074 87.8158 69.0815C87.3567 69.3904 86.775 69.5278 86.1015 69.5271C85.0612 69.526 84.205 69.1811 83.594 68.4576C82.9831 67.7342 82.6487 66.7704 82.6198 65.5662ZM96.0176 69.3317L93.7963 57.696L94.9286 57.6972L96.2057 65.3392C96.3578 66.1308 96.479 66.9223 96.5707 67.7139L96.9708 65.5459L98.6003 57.7003L99.9164 57.7017L101.134 63.5887C101.42 64.9517 101.643 66.3305 101.803 67.7194C101.895 66.9628 102.049 66.1021 102.203 65.1735L103.557 57.7063L104.72 57.7076L102.352 69.3384L101.28 69.3373L99.4841 60.4898L99.2106 59.1126C99.149 59.6286 99.0566 60.0767 98.9643 60.4893L97.1499 69.3329L96.0176 69.3317ZM105.931 69.3422L105.944 57.7089L107.076 57.7101L107.064 69.3434L105.931 69.3422ZM111.194 69.3478L111.205 59.0914L108.421 59.0884L108.422 57.7115L115.123 57.7186L115.122 59.0955L112.308 59.0925L112.297 69.3489L111.194 69.3478ZM116.214 69.3531L116.226 57.7198L117.357 57.721L117.352 62.5051L121.758 62.5098L121.763 57.7256L122.896 57.7268L122.884 69.3602L121.751 69.359L121.756 63.8867L117.351 63.8821L117.345 69.3543L116.214 69.3531Z" fill="#919191"/>
</g>
</g>
<defs>
<filter id="filter0_dd_55_171" x="35.3409" y="-1.79663" width="140.349" height="156.83" filterUnits="userSpaceOnUse" color-interpolation-filters="sRGB">
<feFlood flood-opacity="0" result="BackgroundImageFix"/>
<feColorMatrix in="SourceAlpha" type="matrix" values="0 0 0 0 0 0 0 0 0 0 0 0 0 0 0 0 0 0 127 0" result="hardAlpha"/>
<feOffset dy="4"/>
<feGaussianBlur stdDeviation="2"/>
<feComposite in2="hardAlpha" operator="out"/>
<feColorMatrix type="matrix" values="0 0 0 0 0 0 0 0 0 0 0 0 0 0 0 0 0 0 0.25 0"/>
<feBlend mode="normal" in2="BackgroundImageFix" result="effect1_dropShadow_55_171"/>
<feColorMatrix in="SourceAlpha" type="matrix" values="0 0 0 0 0 0 0 0 0 0 0 0 0 0 0 0 0 0 127 0" result="hardAlpha"/>
<feOffset dy="4"/>
<feGaussianBlur stdDeviation="2"/>
<feComposite in2="hardAlpha" operator="out"/>
<feColorMatrix type="matrix" values="0 0 0 0 0 0 0 0 0 0 0 0 0 0 0 0 0 0 0.25 0"/>
<feBlend mode="normal" in2="effect1_dropShadow_55_171" result="effect2_dropShadow_55_171"/>
<feBlend mode="normal" in="SourceGraphic" in2="effect2_dropShadow_55_171" result="shape"/>
</filter>
<clipPath id="clip0_55_171">
<rect width="181" height="174" fill="white" transform="translate(0.251251 0.128174)"/>
</clipPath>
</defs>
</svg>
