<svg width="182" height="175" viewBox="0 0 182 175" fill="none" xmlns="http://www.w3.org/2000/svg">
<g clip-path="url(#clip0_47_70)">
<path d="M84.9733 0.859768C84.5845 0.893749 83.3473 1.01268 82.2338 1.09764C56.5534 3.3234 32.499 16.644 17.264 37.1176C8.78047 48.5012 3.35453 61.414 1.30434 75.0914C0.579704 79.8657 0.491333 81.2759 0.491333 87.7493C0.491334 94.2227 0.579704 95.6329 1.30434 100.407C6.21773 133.046 30.3782 160.469 63.1459 170.629C69.0136 172.447 75.1996 173.687 82.2338 174.435C84.9733 174.724 96.8149 174.724 99.5544 174.435C111.696 173.144 121.983 170.255 132.128 165.277C133.683 164.513 133.983 164.309 133.771 164.139C133.63 164.037 127.002 155.491 119.049 145.16L104.592 126.386L86.4756 100.611C76.5074 86.4411 68.3067 74.8535 68.236 74.8535C68.1653 74.8365 68.0946 86.2881 68.0592 100.271C68.0062 124.755 67.9886 125.74 67.6704 126.318C67.2109 127.15 66.8574 127.49 66.1151 127.864C65.5495 128.136 65.0547 128.187 62.3859 128.187L59.3283 128.187L58.5153 127.694C57.985 127.371 57.5962 126.946 57.3311 126.454L56.9599 125.689L56.9953 91.6232L57.0483 57.5402L57.5962 56.8775C57.879 56.5207 58.4799 56.062 58.9041 55.8411C59.6287 55.5013 59.9115 55.4673 62.9691 55.4673C66.5746 55.4673 67.1755 55.6032 68.1123 56.5887C68.3774 56.8605 78.1865 71.0646 89.9221 88.1741C101.658 105.284 117.706 128.646 125.588 140.114L139.904 160.962L140.629 160.503C147.045 156.493 153.831 150.784 159.204 144.838C170.639 132.214 178.01 116.82 180.484 100.407C181.209 95.6329 181.297 94.2227 181.297 87.7493C181.297 81.2759 181.209 79.8657 180.484 75.0914C175.571 42.4526 151.41 15.0299 118.642 4.86953C112.863 3.06854 106.712 1.82823 99.8195 1.08065C98.1228 0.91074 86.4403 0.723844 84.9733 0.859768ZM121.983 53.4285C122.831 53.8362 123.52 54.6178 123.768 55.4333C123.909 55.8751 123.945 65.3218 123.909 86.611L123.856 117.16L118.254 108.903L112.633 100.645L112.633 78.4385C112.633 64.0815 112.704 56.011 112.81 55.6202C113.093 54.6688 113.711 53.9212 114.56 53.4794C115.284 53.1226 115.549 53.0886 118.324 53.0886C120.94 53.0886 121.4 53.1226 121.983 53.4285Z" fill="#858585" fill-opacity="0.85"/>
<path d="M139.021 161.335C138.402 161.709 138.208 161.964 138.755 161.675C139.144 161.454 139.781 160.996 139.675 160.979C139.621 160.979 139.321 161.148 139.021 161.335ZM137.801 162.1C137.483 162.338 137.483 162.355 137.872 162.168C138.084 162.066 138.261 161.947 138.261 161.913C138.261 161.777 138.172 161.811 137.801 162.1ZM136.917 162.61C136.599 162.847 136.599 162.864 136.988 162.678C137.2 162.576 137.377 162.457 137.377 162.423C137.377 162.287 137.289 162.321 136.917 162.61ZM136.034 163.119C135.716 163.357 135.716 163.374 136.104 163.187C136.316 163.085 136.493 162.966 136.493 162.932C136.493 162.797 136.405 162.83 136.034 163.119ZM134.69 163.799C134.019 164.139 134.054 164.275 134.726 163.952C135.026 163.799 135.256 163.646 135.256 163.612C135.256 163.493 135.238 163.51 134.69 163.799Z" fill="white" fill-opacity="0.85"/>
</g>
<defs>
<clipPath id="clip0_47_70">
<rect width="181" height="174" fill="white" transform="translate(0.394135 0.723877)"/>
</clipPath>
</defs>
</svg>
