<svg width="116" height="116" viewBox="0 0 116 116" fill="none" xmlns="http://www.w3.org/2000/svg">
<g clip-path="url(#clip0_47_73)">
<path d="M52.78 1.47389C55.934 -0.165327 60.042 -0.172732 63.1933 1.47389C79.0469 9.60788 94.9055 17.7291 110.756 25.868C113.738 27.3929 115.732 30.4056 115.702 33.5249L115.702 82.4621C115.724 85.7105 113.533 88.7952 110.387 90.2855C94.5857 98.3746 78.7923 106.474 62.9935 114.563C59.7743 116.234 55.5838 116.105 52.4652 114.297C47.7279 111.803 42.9824 109.322 38.2447 106.831C37.2766 106.307 36.1852 105.89 35.5016 105.038C36.1059 104.298 37.1864 104.206 38.0644 103.883C40.0418 103.312 41.858 102.396 43.6746 101.506C44.134 101.221 44.6949 101.33 45.1352 101.586C49.1862 103.695 53.2013 105.865 57.2659 107.954C58.133 108.408 59.0109 107.805 59.7521 107.43C75.2583 99.4721 90.7835 91.5446 106.287 83.5846C106.861 83.3337 107.179 82.78 107.132 82.2087C107.143 66.0653 107.135 49.9191 107.138 33.7758C107.203 33.1275 106.79 32.5315 106.145 32.2661C90.3979 24.214 74.6594 16.1495 58.9153 8.09535C58.6426 7.92508 58.3194 7.83371 57.9884 7.83327C57.6574 7.83283 57.334 7.92334 57.0607 8.09289C41.3167 16.1495 25.5808 24.2214 9.83679 32.2731C9.19349 32.5389 8.76175 33.125 8.83832 33.7758C8.84103 49.9191 8.83832 66.0653 8.83832 82.2111C8.81102 82.4899 8.87845 82.7696 9.03153 83.0125C9.18462 83.2554 9.41601 83.4499 9.69454 83.5698C13.8959 85.7331 18.1027 87.8811 22.3068 90.037C24.6752 91.1945 27.5832 91.8823 30.1926 90.9955C32.4953 90.2456 34.1095 88.1119 34.0655 85.8919C34.0873 69.8427 34.0546 53.7911 34.0818 37.7445C34.0243 37.032 34.7686 36.4434 35.5315 36.5104C37.5502 36.4981 39.5716 36.4857 41.5903 36.5154C42.4329 36.4981 43.0128 37.2652 42.9086 37.983C42.9004 54.1338 42.9303 70.2849 42.895 86.4357C42.9004 90.74 40.9529 95.4236 36.568 97.5297C31.1662 100.071 24.4895 99.5317 19.1528 97.0953C14.5329 95.0016 10.124 92.5306 5.58604 90.2875C2.43253 88.8054 0.252117 85.7084 0.274316 82.4625L0.274316 33.5249C0.241245 30.341 2.31474 27.2736 5.38898 25.771C21.1878 17.6752 36.9839 9.57333 52.78 1.47389Z" fill="#909090"/>
<path d="M66.5629 35.3731C73.4534 34.9704 80.8301 35.1346 87.0306 38.2168C91.8313 40.5787 94.4929 45.5359 94.5776 50.3787C94.4435 51.0319 93.6915 51.3922 93.0047 51.3474C91.0055 51.3449 89.0058 51.3721 87.0066 51.3351C86.1585 51.3647 85.6657 50.6547 85.5592 49.9739C84.9848 47.6568 83.5931 45.3619 81.1911 44.2443C77.5039 42.568 73.2287 42.6523 69.2081 42.6873C66.273 42.8288 63.1167 43.0596 60.6301 44.6268C58.721 45.814 58.1412 48.2105 58.8225 50.1405C59.4649 51.5263 61.2267 51.9735 62.6682 52.3856C70.9722 54.3576 79.7718 54.1614 87.9172 56.7566C91.2895 57.8146 94.5885 59.8713 95.7428 63.0774C97.2527 67.3743 96.5908 72.5104 93.2239 75.96C90.4936 78.7987 86.5169 80.3437 82.5506 81.1829C77.2743 82.2511 71.7985 82.2783 66.4401 81.804C61.4016 81.2824 56.1583 80.0804 52.2686 76.9633C48.9425 74.3409 47.3179 70.255 47.4792 66.3114C47.5177 65.6454 48.248 65.181 48.9506 65.2357C50.9639 65.2209 52.9771 65.216 54.9904 65.2382C55.7945 65.186 56.3907 65.817 56.4319 66.5052C56.8034 68.7129 57.7171 71.03 59.8373 72.3389C63.929 74.7358 69.0632 74.5717 73.7484 74.6387C77.6299 74.4824 81.9871 74.4351 85.1546 72.1056C86.8259 70.777 87.321 68.5541 86.8693 66.6417C86.3801 65.0272 84.5199 64.2748 82.9226 63.7829C74.7251 61.4283 65.8272 62.2827 57.709 59.62C54.4132 58.5624 51.2262 56.5629 49.96 53.4885C48.1932 49.1372 49.0027 43.7552 52.7225 40.422C56.3494 37.1066 61.5851 35.8301 66.5629 35.3731Z" fill="#909090"/>
</g>
<defs>
<clipPath id="clip0_47_73">
<rect width="116" height="116" fill="white" transform="translate(0.000732422 0.0012207)"/>
</clipPath>
</defs>
</svg>
