<svg width="117" height="117" viewBox="0 0 117 117" fill="none" xmlns="http://www.w3.org/2000/svg">
<g clip-path="url(#clip0_47_50)">
<path d="M116.027 58.6463C116.027 51.9024 106.403 45.5113 91.6493 41.548C95.0541 28.3507 93.5408 17.851 86.8731 14.4894C85.3362 13.7009 83.5392 13.3274 81.5767 13.3274L81.5767 17.9547C82.6643 17.9547 83.5392 18.1415 84.2722 18.4942C87.4878 20.1128 88.8829 26.2757 87.7952 34.2023C87.5351 36.1529 87.1095 38.2072 86.5893 40.3029C81.955 39.3069 76.8951 38.5392 71.5751 38.0411C68.383 34.2023 65.0728 30.7162 61.7389 27.6659C69.4471 21.3786 76.6823 17.934 81.6003 17.934L81.6003 13.3066C75.0981 13.3066 66.5861 17.3737 57.9795 24.4289C49.3729 17.4152 40.8608 13.3896 34.3586 13.3896L34.3586 18.017C39.253 18.017 46.5119 21.4408 54.22 27.6867C50.9098 30.737 47.5995 34.2023 44.4548 38.0411C39.1111 38.5392 34.0512 39.3069 29.4169 40.3237C28.8731 38.2487 28.4711 36.2359 28.1874 34.3061C27.0761 26.3794 28.4475 20.2165 31.6395 18.5772C32.3488 18.2037 33.2709 18.0377 34.3586 18.0377L34.3586 13.4104C32.3725 13.4104 30.5755 13.7839 29.0149 14.5724C22.3708 17.934 20.8812 28.4129 24.3097 41.5687C9.60279 45.5528 0.0267563 51.9232 0.0267563 58.6463C0.0267563 65.3902 9.65007 71.7813 24.4043 75.7447C20.9994 88.9419 22.5127 99.4417 29.1804 102.803C30.7173 103.592 32.5143 103.965 34.5005 103.965C41.0027 103.965 49.5147 99.8982 58.1213 92.843C66.7279 99.8567 75.24 103.882 81.7422 103.882C83.7283 103.882 85.5253 103.509 87.0859 102.72C93.73 99.3587 95.2196 88.8797 91.7911 75.7239C106.451 71.7606 116.027 65.3695 116.027 58.6463ZM85.2416 44.8058C84.3667 47.4826 83.2791 50.2424 82.0496 53.0022C81.0802 51.3422 80.0634 49.6821 78.9522 48.0221C77.8645 46.3621 76.7059 44.7435 75.5473 43.1665C78.9049 43.6023 82.1442 44.1418 85.2416 44.8058ZM74.4124 66.905C72.5681 69.7063 70.6766 72.3624 68.7141 74.8317C65.191 75.1014 61.6207 75.2467 58.0268 75.2467C54.4564 75.2467 50.8861 75.1014 47.3867 74.8524C45.4242 72.3831 43.509 69.7478 41.6647 66.9672C39.8678 64.2489 38.2363 61.4891 36.7467 58.7086C38.2127 55.928 39.8678 53.1475 41.6411 50.4291C43.4854 47.6278 45.3769 44.9718 47.3394 42.5025C50.8625 42.2327 54.4328 42.0875 58.0268 42.0875C61.5971 42.0875 65.1674 42.2327 68.6668 42.4817C70.6293 44.951 72.5445 47.5863 74.3888 50.3669C76.1857 53.0852 77.8172 55.845 79.3068 58.6256C77.8172 61.4061 76.1857 64.1867 74.4124 66.905ZM82.0496 64.2074C83.3264 66.988 84.414 69.7686 85.3125 72.4661C82.2151 73.1301 78.9522 73.6904 75.571 74.1261C76.7296 72.5284 77.8882 70.8891 78.9758 69.2083C80.0635 67.5483 81.0802 65.8675 82.0496 64.2074ZM58.0741 86.3481C55.8751 84.3561 53.6762 82.1358 51.5009 79.708C53.6289 79.791 55.8042 79.8533 58.0031 79.8533C60.2257 79.8533 62.4246 79.8118 64.5763 79.708C62.4483 82.1358 60.2493 84.3561 58.0741 86.3481ZM40.4825 74.1261C37.125 73.6904 33.8857 73.1509 30.7883 72.4869C31.6631 69.8101 32.7508 67.0502 33.9803 64.2904C34.9497 65.9505 35.9664 67.6105 37.0777 69.2705C38.189 70.9306 39.3239 72.5491 40.4825 74.1261ZM57.9558 30.9445C60.1548 32.9365 62.3537 35.1568 64.529 37.5846C62.401 37.5016 60.2257 37.4394 58.0268 37.4394C55.8042 37.4394 53.6052 37.4809 51.4536 37.5846C53.5816 35.1568 55.7805 32.9365 57.9558 30.9445ZM40.4589 43.1665C39.3003 44.7643 38.1417 46.4036 37.0541 48.0844C35.9664 49.7444 34.9497 51.4044 33.9803 53.0645C32.7035 50.2839 31.6158 47.5033 30.7173 44.8058C33.8148 44.1625 37.0777 43.6023 40.4589 43.1665ZM19.0606 69.146C10.6904 66.0127 5.27584 61.9041 5.27584 58.6463C5.27584 55.3885 10.6904 51.2592 19.0606 48.1466C21.094 47.3788 23.3166 46.6941 25.6101 46.0508C26.9579 50.1179 28.7312 54.351 30.9301 58.6878C28.7548 63.0039 27.0052 67.2162 25.6811 71.2626C23.3403 70.6193 21.1177 69.9138 19.0606 69.146ZM31.7813 98.7984C28.5657 97.1799 27.1707 91.017 28.2583 83.0903C28.5184 81.1398 28.944 79.0855 29.4642 76.9897C34.0985 77.9857 39.1584 78.7535 44.4785 79.2515C47.6705 83.0903 50.9807 86.5764 54.3146 89.6267C46.6065 95.9141 39.3712 99.3587 34.4532 99.3587C33.3892 99.3379 32.4907 99.1512 31.7813 98.7984ZM87.8661 82.9866C88.9774 90.9132 87.606 97.0761 84.414 98.7154C83.7047 99.0889 82.7826 99.2549 81.6949 99.2549C76.8005 99.2549 69.5416 95.8311 61.8335 89.5852C65.1438 86.5349 68.454 83.0696 71.5987 79.2307C76.9424 78.7327 82.0023 77.965 86.6366 76.9482C87.1804 79.044 87.606 81.0568 87.8661 82.9866ZM96.9693 69.146C94.9359 69.9138 92.7133 70.5986 90.4197 71.2418C89.072 67.1747 87.2987 62.9417 85.0997 58.6048C87.275 54.2887 89.0247 50.0764 90.3488 46.0301C92.6896 46.6733 94.9122 47.3788 96.9929 48.1466C105.363 51.2799 110.778 55.3885 110.778 58.6463C110.754 61.9041 105.339 66.0335 96.9693 69.146Z" fill="#858585"/>
<path d="M58.0031 68.1292C63.9708 68.1292 68.8087 63.8836 68.8087 58.6463C68.8087 53.409 63.9708 49.1633 58.0031 49.1633C52.0354 49.1633 47.1976 53.409 47.1976 58.6463C47.1976 63.8836 52.0354 68.1292 58.0031 68.1292Z" fill="#858585"/>
</g>
<defs>
<clipPath id="clip0_47_50">
<rect width="116" height="116" fill="white" transform="translate(0.0267563 0.635986)"/>
</clipPath>
</defs>
</svg>
