<svg width="169" height="117" viewBox="0 0 169 117" fill="none" xmlns="http://www.w3.org/2000/svg">
<path d="M83.5444 29.5986C67.6445 29.5986 57.7076 37.5667 53.7323 53.5012C59.6953 45.5332 66.6514 42.5463 74.6006 44.5376C79.1366 45.6737 82.3783 48.9731 85.9675 52.6237C91.8127 58.5706 98.578 65.4533 113.357 65.4533C129.255 65.4533 139.193 57.4853 143.167 41.5492C137.206 49.5172 130.25 52.5056 122.299 50.5143C117.764 49.3782 114.523 46.0789 110.933 42.4282C105.088 36.4813 98.3215 29.5986 83.5444 29.5986ZM53.7323 65.4533C37.8339 65.4533 27.8955 73.4213 23.9216 89.3574C29.8832 81.3894 36.8393 78.401 44.79 80.3937C49.3245 81.5314 52.5662 84.8292 56.1554 88.4784C62.0006 94.4252 68.7673 101.309 83.5444 101.309C99.4443 101.309 109.381 93.3414 113.357 77.4053C107.394 85.3734 100.437 88.3618 92.4882 86.369C87.9522 85.2343 84.7105 81.9335 81.1213 78.2844C75.2761 72.3375 68.5109 65.4533 53.7323 65.4533Z" fill="#353535"/>
</svg>
