<svg width="117" height="117" viewBox="0 0 117 117" fill="none" xmlns="http://www.w3.org/2000/svg">
<g clip-path="url(#clip0_54_16)">
<path d="M66.8315 18.3904L66.8315 36.2358L99.9772 54.0813L99.9772 36.2358L66.8315 18.3904ZM0.545044 36.2358L0.545044 54.0813L17.1179 63.004L17.1179 45.1585L0.545044 36.2358ZM50.2586 45.1585L33.6858 54.0813L33.6858 107.618L50.2586 116.545L50.2586 80.8541L66.8315 89.7768L66.8315 71.9313L50.2586 63.0086L50.2586 45.1585Z" fill="#1E1E1E"/>
<path d="M66.8315 18.3904L17.1179 45.1585L17.1179 63.004L50.2636 45.1585L50.2636 63.004L66.8365 54.0813L66.8365 18.3904L66.8315 18.3904ZM116.545 27.3131L99.9722 36.2358L99.9722 54.0813L116.545 45.1585L116.545 27.3131ZM83.4043 63.0086L66.8315 71.9313L66.8315 89.7768L83.4043 80.8541L83.4043 63.0086ZM66.8315 89.7768L50.2586 80.8541L50.2586 116.545L66.8315 107.622L66.8315 89.7768Z" fill="#2B2B2B"/>
<path d="M66.8315 0.544922L0.545044 36.2358L17.1179 45.1585L66.8315 18.3904L99.9772 36.2358L116.55 27.3131L66.8315 0.544922ZM66.8315 54.0812L50.2586 63.004L66.8315 71.9267L83.4043 63.004L66.8315 54.0812Z" fill="#393939"/>
</g>
<defs>
<clipPath id="clip0_54_16">
<rect width="116" height="116" fill="white" transform="translate(0.545044 0.544922)"/>
</clipPath>
</defs>
</svg>
